<?xml version="1.0" encoding="utf-8"?>
<!-- Generator: Adobe Illustrator 23.1.1, SVG Export Plug-In . SVG Version: 6.00 Build 0)  -->
<svg version="1.1" id="Layer_1" xmlns="http://www.w3.org/2000/svg" xmlns:xlink="http://www.w3.org/1999/xlink" x="0px" y="0px"
	 viewBox="0 0 180 504" style="enable-background:new 0 0 180 504;" xml:space="preserve">
<style type="text/css">
	.st0{fill:#233B29;}
	.st1{fill:#748B70;}
	.st2{fill:#3E5945;}
	.st3{fill:#E7E3E2;}
	.st4{fill:#A3A3A3;}
	.st5{fill:#912C2D;}
	.st6{fill:#691B1B;}
</style>
<g>
	<g>
		<g>
			<polygon class="st0" points="2.08,68.75 0,3.34 118.36,3.34 85.06,69.77 85.06,68.75 			"/>
		</g>
		<g>
			<g>
				<path class="st1" d="M148.85,3.34c17.52,0,31.43,14.73,30.44,32.21l-24.24,423.48l-8.57-0.89l0.16,45.86H81.47l3.58-434.23
					l33.3-66.43H148.85z"/>
			</g>
		</g>
		<g>
			<path class="st2" d="M0,0l2.08,65.41h76.86L75.26,504h65.16v-46.3l8.57,0.89l24.17-426.37C174.15,14.73,160.24,0,142.72,0L0,0z"
				/>
		</g>
	</g>
	<g>
		<g>
			<g>
				<path class="st0" d="M40.19,50.91c-2.25-1.79-3.94-4.07-5.07-6.84c-1.13-2.77-1.7-5.66-1.7-8.66c0-2.93,0.54-5.79,1.63-8.56
					c1.08-2.77,2.71-5.05,4.88-6.84c2.17-1.79,4.8-2.68,7.9-2.68c3.29,0,6.01,0.73,8.16,2.18c2.15,1.45,3.93,3.64,5.34,6.58
					L54.44,29c-0.48-1.53-1.22-2.81-2.23-3.83c-1.01-1.02-2.23-1.53-3.66-1.53c-1.75,0-3.16,0.65-4.21,1.96
					c-1.05,1.31-1.79,2.85-2.2,4.64c-0.41,1.79-0.62,3.48-0.62,5.07c0,1.66,0.22,3.4,0.67,5.24c0.45,1.83,1.19,3.41,2.23,4.74
					c1.04,1.32,2.39,1.99,4.05,1.99c1.79,0,3.15-0.7,4.09-2.1c0.94-1.4,1.52-3.03,1.75-4.88h-6.22v-6.12h14.22v3.4
					c0,3.03-0.5,5.75-1.51,8.16c-1.01,2.41-2.55,4.32-4.62,5.74s-4.66,2.13-7.75,2.13C45.18,53.59,42.44,52.7,40.19,50.91z"/>
			</g>
			<g>
				<path class="st0" d="M75.5,52.78V18.14h8.14v34.63H75.5z"/>
			</g>
			<g>
				<path class="st0" d="M99.53,52.78V18.14h6.37l10.29,17.7h0.1v-17.7h8.23v34.63h-6.65l-10.1-17.7h-0.1v17.7H99.53z"/>
			</g>
			<g>
				<path class="st0" d="M141.85,50.98c-2.14-1.74-3.73-3.98-4.76-6.72c-1.04-2.74-1.56-5.66-1.56-8.75c0-3.13,0.5-6.07,1.51-8.83
					c1.01-2.76,2.58-5.01,4.72-6.74c2.14-1.74,4.82-2.61,8.04-2.61c3.22,0,5.9,0.87,8.04,2.61c2.14,1.74,3.71,3.99,4.72,6.74
					c1.01,2.76,1.51,5.7,1.51,8.83c0,3.28-0.48,6.28-1.44,8.99c-0.96,2.71-2.5,4.9-4.62,6.58c-2.12,1.67-4.86,2.51-8.21,2.51
					C146.64,53.59,143.99,52.72,141.85,50.98z M153.44,45.27c0.93-1.34,1.57-2.92,1.94-4.74c0.37-1.82,0.55-3.49,0.55-5.02
					c0-1.63-0.17-3.34-0.5-5.14c-0.34-1.8-0.96-3.37-1.87-4.71c-0.91-1.34-2.16-2.01-3.76-2.01c-1.6,0-2.85,0.67-3.76,2.01
					c-0.91,1.34-1.53,2.91-1.87,4.71c-0.33,1.8-0.5,3.52-0.5,5.14c0,1.53,0.18,3.21,0.55,5.02c0.37,1.82,1.01,3.4,1.94,4.74
					c0.93,1.34,2.14,2.01,3.64,2.01C151.3,47.27,152.51,46.6,153.44,45.27z"/>
			</g>
		</g>
		<g>
			<g>
				<path class="st3" d="M36.63,46.46c-2.25-1.79-3.94-4.07-5.07-6.84c-1.13-2.77-1.7-5.66-1.7-8.66c0-2.93,0.54-5.79,1.63-8.56
					c1.08-2.77,2.71-5.05,4.88-6.84c2.17-1.79,4.8-2.68,7.9-2.68c3.29,0,6.01,0.73,8.16,2.18c2.15,1.45,3.93,3.64,5.34,6.58
					l-6.89,2.92c-0.48-1.53-1.22-2.81-2.23-3.83c-1.01-1.02-2.23-1.53-3.66-1.53c-1.75,0-3.16,0.65-4.21,1.96
					c-1.05,1.31-1.79,2.85-2.2,4.64c-0.41,1.79-0.62,3.48-0.62,5.07c0,1.66,0.22,3.4,0.67,5.24c0.45,1.83,1.19,3.41,2.23,4.74
					c1.04,1.32,2.39,1.99,4.05,1.99c1.79,0,3.15-0.7,4.09-2.1c0.94-1.4,1.52-3.03,1.75-4.88h-6.22v-6.12h14.22v3.4
					c0,3.03-0.5,5.75-1.51,8.16c-1.01,2.41-2.55,4.32-4.62,5.74s-4.66,2.13-7.75,2.13C41.62,49.14,38.88,48.24,36.63,46.46z"/>
				<path class="st4" d="M44.84,49.8c-3.36,0-6.27-0.95-8.63-2.82l0,0c-2.33-1.85-4.11-4.24-5.28-7.11
					c-1.16-2.84-1.75-5.84-1.75-8.91c0-3.01,0.56-5.97,1.67-8.81c1.12-2.87,2.83-5.26,5.08-7.11c2.28-1.88,5.08-2.83,8.32-2.83
					c3.41,0,6.28,0.77,8.54,2.29c2.24,1.51,4.12,3.81,5.57,6.84c0.08,0.16,0.09,0.35,0.02,0.53c-0.06,0.17-0.2,0.31-0.36,0.38
					l-6.89,2.92c-0.17,0.07-0.37,0.07-0.54-0.01c-0.17-0.08-0.3-0.23-0.36-0.41c-0.44-1.42-1.14-2.62-2.06-3.56
					c-0.88-0.9-1.93-1.33-3.19-1.33c-1.56,0-2.76,0.56-3.69,1.71c-0.98,1.22-1.68,2.69-2.07,4.37c-0.4,1.73-0.6,3.38-0.6,4.92
					c0,1.6,0.22,3.31,0.65,5.08c0.42,1.73,1.13,3.24,2.1,4.48c0.91,1.16,2.06,1.73,3.52,1.73c1.56,0,2.72-0.59,3.54-1.81
					c0.75-1.12,1.26-2.41,1.52-3.84h-5.45c-0.37,0-0.67-0.3-0.67-0.67v-6.12c0-0.37,0.3-0.67,0.67-0.67h14.22
					c0.37,0,0.67,0.3,0.67,0.67v3.4c0,3.1-0.52,5.94-1.56,8.41c-1.05,2.52-2.69,4.55-4.86,6.03C50.8,49.05,48.06,49.8,44.84,49.8z
					 M44.27,13.54c-2.92,0-5.44,0.85-7.47,2.53c-2.07,1.7-3.65,3.91-4.68,6.57c-1.05,2.68-1.58,5.48-1.58,8.32
					c0,2.9,0.55,5.73,1.65,8.41c1.08,2.65,2.72,4.86,4.87,6.57l0,0c2.12,1.68,4.74,2.53,7.8,2.53c2.94,0,5.43-0.68,7.38-2.01
					c1.96-1.34,3.43-3.17,4.38-5.45c0.97-2.31,1.46-4.97,1.46-7.9v-2.73H45.17v4.79h5.56c0.19,0,0.37,0.08,0.5,0.22
					c0.13,0.14,0.19,0.33,0.16,0.52c-0.24,1.95-0.86,3.69-1.86,5.17c-1.07,1.59-2.63,2.4-4.65,2.4c-1.87,0-3.41-0.75-4.57-2.24
					c-1.09-1.39-1.88-3.07-2.35-4.99c-0.46-1.87-0.69-3.69-0.69-5.4c0-1.64,0.22-3.4,0.64-5.22c0.44-1.88,1.22-3.53,2.33-4.91
					c1.18-1.47,2.77-2.21,4.73-2.21c1.61,0,3.01,0.58,4.14,1.73c0.92,0.93,1.64,2.08,2.15,3.4l5.58-2.36
					c-1.3-2.5-2.91-4.41-4.8-5.69C50.02,14.24,47.4,13.54,44.27,13.54z"/>
			</g>
			<g>
				<path class="st3" d="M71.94,48.32V13.69h8.14v34.63H71.94z"/>
				<path class="st4" d="M80.08,48.99h-8.14c-0.37,0-0.67-0.3-0.67-0.67V13.69c0-0.37,0.3-0.67,0.67-0.67h8.14
					c0.37,0,0.67,0.3,0.67,0.67v34.63C80.74,48.69,80.45,48.99,80.08,48.99z M72.61,47.66h6.8v-33.3h-6.8V47.66z"/>
			</g>
			<g>
				<path class="st3" d="M95.97,48.32V13.69h6.37l10.29,17.7h0.1v-17.7h8.23v34.63h-6.65l-10.1-17.7h-0.1v17.7H95.97z"/>
				<path class="st4" d="M120.96,48.99h-6.65c-0.24,0-0.46-0.13-0.58-0.34l-8.95-15.68v15.35c0,0.37-0.3,0.67-0.67,0.67h-8.14
					c-0.37,0-0.67-0.3-0.67-0.67V13.69c0-0.37,0.3-0.67,0.67-0.67h6.37c0.24,0,0.46,0.13,0.58,0.33l9.14,15.72V13.69
					c0-0.37,0.3-0.67,0.67-0.67h8.23c0.37,0,0.67,0.3,0.67,0.67v34.63C121.63,48.69,121.33,48.99,120.96,48.99z M114.69,47.66h5.6
					v-33.3h-6.9v17.03c0,0.37-0.3,0.67-0.67,0.67h-0.1c-0.24,0-0.46-0.13-0.58-0.33l-10.1-17.37h-5.32v33.3h6.8V30.62
					c0-0.37,0.3-0.67,0.67-0.67h0.1c0.24,0,0.46,0.13,0.58,0.34L114.69,47.66z"/>
			</g>
			<g>
				<path class="st3" d="M138.29,46.53c-2.14-1.74-3.73-3.98-4.76-6.72c-1.04-2.74-1.56-5.66-1.56-8.75c0-3.13,0.5-6.07,1.51-8.83
					c1.01-2.76,2.58-5.01,4.72-6.74c2.14-1.74,4.82-2.61,8.04-2.61c3.22,0,5.9,0.87,8.04,2.61c2.14,1.74,3.71,3.99,4.72,6.74
					c1.01,2.76,1.51,5.7,1.51,8.83c0,3.28-0.48,6.28-1.44,8.99c-0.96,2.71-2.5,4.9-4.62,6.58c-2.12,1.67-4.86,2.51-8.21,2.51
					C143.08,49.14,140.43,48.27,138.29,46.53z M149.88,40.81c0.93-1.34,1.57-2.92,1.94-4.74c0.37-1.82,0.55-3.49,0.55-5.02
					c0-1.63-0.17-3.34-0.5-5.14c-0.34-1.8-0.96-3.37-1.87-4.71c-0.91-1.34-2.16-2.01-3.76-2.01c-1.6,0-2.85,0.67-3.76,2.01
					c-0.91,1.34-1.53,2.91-1.87,4.71c-0.33,1.8-0.5,3.52-0.5,5.14c0,1.53,0.18,3.21,0.55,5.02c0.37,1.82,1.01,3.4,1.94,4.74
					c0.93,1.34,2.14,2.01,3.64,2.01C147.74,42.82,148.95,42.15,149.88,40.81z"/>
				<path class="st4" d="M146.24,49.8c-3.3,0-6.12-0.93-8.37-2.76c-2.22-1.81-3.89-4.16-4.97-7c-1.06-2.8-1.6-5.83-1.6-8.99
					c0-3.19,0.52-6.24,1.55-9.06c1.04-2.86,2.7-5.23,4.92-7.03c2.25-1.83,5.1-2.76,8.46-2.76c3.37,0,6.21,0.93,8.46,2.76
					c2.22,1.81,3.88,4.17,4.92,7.03c1.03,2.82,1.55,5.87,1.55,9.06c0,3.35-0.5,6.45-1.47,9.22c-1,2.82-2.62,5.13-4.84,6.88
					C152.63,48.91,149.73,49.8,146.24,49.8z M146.24,13.54c-3.05,0-5.62,0.83-7.62,2.46c-2.03,1.65-3.55,3.82-4.51,6.46
					c-0.97,2.67-1.47,5.56-1.47,8.6c0,3,0.51,5.86,1.51,8.52c0.99,2.62,2.52,4.78,4.56,6.44l0,0c2,1.63,4.54,2.46,7.53,2.46
					c3.18,0,5.81-0.8,7.8-2.37c2.01-1.59,3.49-3.7,4.4-6.28c0.93-2.63,1.4-5.58,1.4-8.77c0-3.03-0.49-5.92-1.47-8.6
					c-0.96-2.63-2.48-4.8-4.51-6.46C151.85,14.37,149.29,13.54,146.24,13.54z M146.24,43.49c-1.73,0-3.13-0.77-4.19-2.3
					c-0.97-1.41-1.66-3.09-2.04-4.98c-0.37-1.85-0.56-3.59-0.56-5.15c0-1.66,0.17-3.43,0.51-5.26c0.35-1.89,1.01-3.56,1.97-4.96
					c1.04-1.53,2.49-2.3,4.31-2.3c1.82,0,3.27,0.77,4.31,2.3c0.96,1.41,1.62,3.08,1.97,4.96c0.34,1.83,0.51,3.6,0.51,5.26
					c0,1.56-0.19,3.3-0.56,5.15c-0.38,1.9-1.07,3.58-2.04,4.98C149.37,42.72,147.96,43.49,146.24,43.49z M146.24,19.86
					c-1.37,0-2.42,0.56-3.2,1.72c-0.85,1.26-1.45,2.76-1.76,4.46c-0.33,1.75-0.49,3.44-0.49,5.02c0,1.48,0.18,3.12,0.54,4.89
					c0.35,1.72,0.96,3.23,1.83,4.49c0.8,1.16,1.81,1.72,3.09,1.72c1.28,0,2.29-0.56,3.09-1.72c0.87-1.26,1.49-2.77,1.83-4.49
					c0.36-1.77,0.54-3.41,0.54-4.89c0-1.58-0.17-3.27-0.49-5.02c-0.32-1.7-0.91-3.2-1.76-4.46
					C148.66,20.42,147.61,19.86,146.24,19.86z"/>
			</g>
		</g>
	</g>
	<g>
		<g>
			<path class="st0" d="M123.05,177.17c-0.81-1.02-1.79-1.79-2.95-2.31s-2.48-0.77-3.98-0.73c-1.5,0.04-2.88,0.39-4.14,1.05
				c-1.26,0.66-2.34,1.57-3.25,2.73c-0.91,1.16-1.6,2.52-2.09,4.09c-0.49,1.57-0.71,3.26-0.66,5.08c0.05,1.85,0.36,3.54,0.93,5.07
				c0.57,1.52,1.33,2.84,2.27,3.94c0.95,1.11,2.05,1.96,3.31,2.55c1.26,0.6,2.6,0.88,4.03,0.84c1.63-0.04,3.07-0.45,4.31-1.23
				c1.24-0.77,2.25-1.84,3.03-3.19l6.78,5.22c-1.47,2.37-3.36,4.15-5.68,5.32c-2.32,1.17-4.72,1.79-7.2,1.86
				c-2.82,0.07-5.44-0.34-7.85-1.24c-2.41-0.9-4.5-2.23-6.29-3.98c-1.78-1.75-3.19-3.89-4.23-6.42c-1.04-2.53-1.6-5.37-1.68-8.52
				c-0.08-3.15,0.33-6.02,1.23-8.6c0.9-2.58,2.2-4.79,3.89-6.64c1.69-1.84,3.71-3.28,6.07-4.3c2.36-1.03,4.95-1.58,7.77-1.65
				c1.02-0.03,2.09,0.05,3.2,0.22c1.11,0.18,2.21,0.47,3.29,0.89c1.08,0.42,2.13,0.98,3.13,1.7c1.01,0.72,1.91,1.6,2.73,2.65
				L123.05,177.17z"/>
		</g>
		<g>
			<path class="st3" d="M117.74,173.61c-0.81-1.02-1.79-1.79-2.95-2.31c-1.15-0.53-2.48-0.77-3.98-0.73
				c-1.5,0.04-2.88,0.39-4.14,1.05c-1.26,0.66-2.34,1.57-3.25,2.73c-0.91,1.16-1.6,2.52-2.09,4.09c-0.49,1.57-0.71,3.26-0.66,5.08
				c0.05,1.85,0.36,3.54,0.93,5.07c0.57,1.52,1.33,2.84,2.27,3.94c0.95,1.11,2.05,1.96,3.31,2.55c1.26,0.6,2.6,0.88,4.03,0.84
				c1.63-0.04,3.07-0.45,4.31-1.23c1.24-0.77,2.25-1.84,3.03-3.19l6.78,5.22c-1.47,2.37-3.36,4.15-5.68,5.32
				c-2.32,1.17-4.72,1.79-7.2,1.86c-2.82,0.07-5.44-0.34-7.85-1.24c-2.41-0.9-4.5-2.23-6.29-3.98c-1.78-1.75-3.19-3.89-4.23-6.42
				c-1.04-2.53-1.6-5.37-1.68-8.52c-0.08-3.15,0.33-6.02,1.23-8.6c0.9-2.58,2.2-4.79,3.89-6.64c1.69-1.84,3.71-3.28,6.07-4.3
				c2.36-1.03,4.95-1.58,7.77-1.65c1.02-0.03,2.09,0.05,3.2,0.22c1.11,0.18,2.21,0.47,3.29,0.89c1.08,0.42,2.13,0.98,3.13,1.7
				c1.01,0.72,1.91,1.6,2.73,2.65L117.74,173.61z"/>
			<path class="st4" d="M111.83,204.57c-2.66,0-5.16-0.43-7.45-1.29c-2.48-0.93-4.68-2.32-6.52-4.13c-1.84-1.81-3.31-4.04-4.38-6.65
				c-1.06-2.6-1.65-5.54-1.73-8.76c-0.08-3.22,0.34-6.19,1.27-8.84c0.93-2.65,2.28-4.97,4.02-6.87c1.74-1.9,3.86-3.4,6.29-4.46
				c2.42-1.06,5.12-1.63,8.02-1.71c1.05-0.03,2.17,0.05,3.32,0.23c1.16,0.18,2.31,0.49,3.43,0.92c1.13,0.43,2.23,1.03,3.28,1.78
				c1.06,0.75,2.02,1.69,2.87,2.79c0.21,0.27,0.18,0.66-0.07,0.9l-5.98,5.61c-0.14,0.13-0.32,0.19-0.5,0.18
				c-0.19-0.01-0.36-0.1-0.47-0.25c-0.74-0.93-1.65-1.64-2.7-2.12c-1.06-0.48-2.3-0.71-3.68-0.67c-1.39,0.04-2.68,0.37-3.84,0.98
				c-1.17,0.62-2.19,1.47-3.03,2.55c-0.85,1.09-1.52,2.39-1.98,3.87c-0.46,1.49-0.68,3.13-0.63,4.86c0.05,1.77,0.34,3.4,0.88,4.85
				c0.54,1.44,1.26,2.7,2.16,3.74c0.88,1.03,1.92,1.83,3.09,2.39c1.16,0.55,2.4,0.81,3.73,0.78c1.51-0.04,2.84-0.42,3.97-1.12
				c1.14-0.71,2.08-1.71,2.81-2.96c0.1-0.17,0.26-0.28,0.45-0.32c0.19-0.04,0.38,0.01,0.54,0.13l6.78,5.22
				c0.27,0.21,0.34,0.59,0.16,0.88c-1.53,2.47-3.53,4.34-5.95,5.57c-2.4,1.21-4.92,1.86-7.49,1.93
				C112.26,204.57,112.04,204.57,111.83,204.57z M111.78,163.2c-0.13,0-0.26,0-0.38,0c-2.72,0.07-5.25,0.61-7.52,1.6
				c-2.26,0.98-4.23,2.38-5.84,4.14c-1.62,1.77-2.88,3.92-3.75,6.41c-0.87,2.49-1.27,5.31-1.19,8.36c0.08,3.05,0.63,5.84,1.63,8.29
				c1,2.43,2.37,4.52,4.08,6.2c1.71,1.68,3.74,2.97,6.05,3.83c2.31,0.87,4.86,1.26,7.6,1.2c2.37-0.06,4.7-0.66,6.92-1.79
				c2.03-1.03,3.74-2.56,5.09-4.57l-5.71-4.39c-0.77,1.15-1.73,2.08-2.85,2.78c-1.33,0.83-2.9,1.28-4.65,1.33
				c-1.52,0.05-2.99-0.26-4.34-0.9c-1.34-0.63-2.53-1.55-3.53-2.72c-1-1.16-1.8-2.56-2.39-4.15c-0.59-1.58-0.92-3.36-0.97-5.28
				c-0.05-1.88,0.18-3.66,0.69-5.29c0.51-1.64,1.25-3.09,2.2-4.3c0.96-1.22,2.12-2.2,3.46-2.91c1.35-0.71,2.84-1.09,4.43-1.13
				c1.6-0.04,3.03,0.22,4.27,0.79c1.03,0.47,1.94,1.13,2.72,1.96l5.02-4.71c-0.67-0.79-1.41-1.48-2.2-2.05
				c-0.96-0.68-1.96-1.22-2.99-1.62c-1.03-0.4-2.09-0.68-3.16-0.85C113.54,163.28,112.64,163.2,111.78,163.2z"/>
		</g>
	</g>
	<g>
		<g>
			<path class="st0" d="M107.94,237.32l6.59-0.17l16.75,38.94l-8.98,0.24l-3.33-8.26l-14.04,0.37l-2.79,8.42l-8.78,0.23
				L107.94,237.32z M111.3,248.69l-4.07,12.34l8.83-0.23L111.3,248.69z"/>
		</g>
		<g>
			<path class="st3" d="M106.37,233.76l6.59-0.17l16.75,38.94l-8.98,0.24l-3.33-8.26l-14.04,0.37l-2.79,8.42l-8.78,0.23
				L106.37,233.76z M109.74,245.13l-4.07,12.34l8.83-0.23L109.74,245.13z"/>
			<path class="st4" d="M91.79,274.19c-0.21,0-0.42-0.1-0.54-0.28c-0.13-0.18-0.16-0.41-0.08-0.62l14.59-39.76
				c0.09-0.26,0.34-0.43,0.61-0.44l6.59-0.17c0.27-0.01,0.52,0.15,0.63,0.4l16.75,38.94c0.09,0.2,0.07,0.44-0.05,0.62
				c-0.12,0.19-0.32,0.3-0.55,0.31l-8.98,0.24c-0.29-0.02-0.53-0.16-0.64-0.42l-3.16-7.83l-13.11,0.34l-2.65,7.97
				c-0.09,0.27-0.34,0.45-0.62,0.46l-8.78,0.23C91.8,274.19,91.79,274.19,91.79,274.19z M106.84,234.42l-14.09,38.41l7.33-0.19
				l2.65-7.97c0.09-0.27,0.34-0.45,0.62-0.46l14.04-0.37c0.26-0.03,0.53,0.16,0.64,0.42l3.16,7.83l7.53-0.2l-16.19-37.62
				L106.84,234.42z M105.67,258.14c-0.21,0-0.41-0.1-0.54-0.27c-0.13-0.17-0.17-0.4-0.1-0.61l4.07-12.34
				c0.09-0.27,0.33-0.45,0.62-0.46c0.28-0.03,0.54,0.16,0.64,0.42l4.76,12.11c0.08,0.2,0.06,0.43-0.06,0.61
				c-0.12,0.18-0.32,0.29-0.54,0.3l-8.83,0.23C105.68,258.14,105.67,258.14,105.67,258.14z M109.79,247.1l-3.19,9.68l6.93-0.18
				L109.79,247.1z"/>
		</g>
	</g>
	<g>
		<g>
			<path class="st0" d="M99.17,307.61l13.99-0.37c1.84-0.05,3.59,0.1,5.25,0.45c1.66,0.35,3.12,0.96,4.39,1.83
				c1.27,0.88,2.28,2.07,3.06,3.59c0.77,1.52,1.19,3.43,1.25,5.72c0.07,2.78-0.53,5.16-1.8,7.14c-1.28,1.98-3.18,3.26-5.72,3.85
				l9.63,16.38l-9.55,0.25l-7.97-15.53l-3.93,0.1l0.41,15.73l-7.96,0.21L99.17,307.61z M107.56,323.69l4.7-0.12
				c0.71-0.02,1.47-0.07,2.27-0.14c0.8-0.08,1.52-0.26,2.15-0.56c0.64-0.29,1.16-0.74,1.57-1.35c0.41-0.6,0.6-1.44,0.57-2.52
				c-0.03-1-0.24-1.79-0.62-2.37c-0.39-0.58-0.88-1.02-1.47-1.33c-0.59-0.3-1.26-0.49-2.01-0.59c-0.75-0.09-1.48-0.13-2.2-0.11
				l-5.21,0.14L107.56,323.69z"/>
		</g>
		<g>
			<path class="st3" d="M93.86,304.05l13.99-0.37c1.84-0.05,3.59,0.1,5.25,0.45c1.66,0.35,3.12,0.96,4.39,1.83
				c1.27,0.88,2.28,2.07,3.06,3.59c0.77,1.52,1.19,3.43,1.25,5.72c0.07,2.78-0.53,5.16-1.8,7.14c-1.28,1.98-3.18,3.26-5.72,3.85
				l9.63,16.38l-9.55,0.25l-7.97-15.53l-3.93,0.1l0.41,15.73l-7.96,0.21L93.86,304.05z M102.25,320.12l4.7-0.12
				c0.71-0.02,1.47-0.07,2.27-0.14c0.8-0.08,1.52-0.26,2.15-0.56c0.64-0.29,1.16-0.74,1.57-1.35c0.41-0.6,0.6-1.44,0.57-2.52
				c-0.03-1-0.24-1.79-0.62-2.37c-0.39-0.58-0.88-1.02-1.47-1.33c-0.59-0.3-1.26-0.49-2.01-0.59c-0.75-0.09-1.48-0.13-2.2-0.11
				l-5.21,0.14L102.25,320.12z"/>
			<path class="st4" d="M94.9,344.07c-0.17,0-0.34-0.07-0.46-0.18c-0.13-0.12-0.2-0.29-0.21-0.47l-1.03-39.35
				c-0.01-0.37,0.28-0.68,0.65-0.69l13.99-0.37c1.88-0.05,3.7,0.11,5.4,0.46c1.74,0.36,3.3,1.01,4.63,1.94
				c1.35,0.94,2.45,2.23,3.27,3.84c0.81,1.6,1.26,3.63,1.32,6.01c0.08,2.9-0.57,5.43-1.91,7.52c-1.22,1.89-2.99,3.2-5.26,3.9
				l9.18,15.62c0.12,0.2,0.12,0.46,0.01,0.66c-0.11,0.21-0.33,0.34-0.57,0.34l-9.55,0.25c-0.26,0-0.49-0.13-0.61-0.36l-7.78-15.16
				l-2.84,0.08l0.4,15.06c0.01,0.37-0.28,0.68-0.65,0.69l-7.96,0.21C94.91,344.07,94.9,344.07,94.9,344.07z M94.55,304.7l1,38.02
				l6.63-0.17l-0.4-15.06c-0.01-0.37,0.28-0.68,0.65-0.69l3.93-0.1c0.25,0.01,0.49,0.13,0.61,0.36l7.78,15.16l7.99-0.21l-9.05-15.4
				c-0.11-0.18-0.12-0.41-0.04-0.6c0.08-0.2,0.26-0.34,0.46-0.39c2.38-0.55,4.12-1.72,5.31-3.56c1.2-1.86,1.77-4.13,1.7-6.76
				c-0.06-2.18-0.45-4.01-1.18-5.44c-0.72-1.41-1.67-2.54-2.84-3.34c-1.19-0.82-2.58-1.4-4.15-1.73c-1.6-0.33-3.32-0.48-5.09-0.43
				L94.55,304.7z M102.25,320.79c-0.17,0-0.34-0.07-0.46-0.18c-0.13-0.12-0.2-0.29-0.21-0.47l-0.23-8.95c0-0.18,0.06-0.35,0.18-0.48
				c0.12-0.13,0.29-0.2,0.47-0.21l5.21-0.14c0.74-0.02,1.52,0.02,2.3,0.11c0.82,0.1,1.57,0.32,2.23,0.65
				c0.69,0.35,1.26,0.87,1.72,1.55c0.46,0.69,0.71,1.61,0.74,2.73c0.03,1.21-0.2,2.19-0.69,2.91c-0.48,0.7-1.1,1.23-1.85,1.58
				c-0.7,0.33-1.5,0.53-2.37,0.62c-0.81,0.08-1.59,0.13-2.32,0.15l-4.7,0.12C102.26,320.79,102.26,320.79,102.25,320.79z
				 M102.7,311.83l0.2,7.61l4.03-0.11c0.7-0.02,1.45-0.06,2.22-0.14c0.72-0.07,1.37-0.24,1.94-0.5c0.53-0.25,0.96-0.61,1.3-1.12
				c0.33-0.48,0.48-1.2,0.46-2.13c-0.02-0.87-0.2-1.55-0.51-2.02c-0.33-0.49-0.73-0.85-1.21-1.1c-0.51-0.26-1.11-0.43-1.78-0.52
				c-0.72-0.09-1.43-0.13-2.1-0.1L102.7,311.83z"/>
		</g>
	</g>
	<g>
		<g>
			<path class="st0" d="M102.31,377.56l7.96-0.21l0.82,31.35l14.75-0.39l0.21,8l-22.72,0.6L102.31,377.56z"/>
		</g>
		<g>
			<path class="st3" d="M97,374l7.96-0.21l0.82,31.35l14.75-0.39l0.21,8l-22.72,0.6L97,374z"/>
			<path class="st4" d="M98.03,414.02c-0.17,0-0.34-0.07-0.46-0.18c-0.13-0.12-0.2-0.29-0.21-0.47l-1.03-39.35
				c-0.01-0.37,0.28-0.68,0.65-0.69l7.96-0.21c0.17-0.01,0.35,0.06,0.48,0.18c0.13,0.12,0.2,0.29,0.21,0.47l0.81,30.68l14.08-0.37
				c0.17-0.01,0.35,0.06,0.48,0.18c0.13,0.12,0.2,0.29,0.21,0.47l0.21,8c0.01,0.37-0.28,0.68-0.65,0.69l-22.72,0.6
				C98.05,414.02,98.04,414.02,98.03,414.02z M97.69,374.65l1,38.02l21.38-0.56l-0.17-6.67l-14.08,0.37
				c-0.35,0.01-0.68-0.28-0.68-0.65l-0.81-30.68L97.69,374.65z"/>
		</g>
	</g>
	<g>
		<g>
			<path class="st0" d="M94.69,467.53c-0.08-3.15,0.33-6.02,1.23-8.6c0.9-2.58,2.2-4.79,3.89-6.64c1.69-1.84,3.71-3.28,6.07-4.3
				c2.36-1.03,4.95-1.57,7.77-1.65c2.82-0.07,5.44,0.34,7.85,1.24c2.41,0.9,4.5,2.23,6.28,3.98c1.78,1.75,3.19,3.89,4.23,6.43
				c1.04,2.53,1.6,5.37,1.68,8.52c0.08,3.15-0.33,6.02-1.23,8.6c-0.9,2.58-2.2,4.79-3.89,6.64c-1.69,1.84-3.71,3.28-6.07,4.3
				c-2.36,1.03-4.95,1.58-7.77,1.65c-2.83,0.07-5.44-0.34-7.85-1.24c-2.41-0.9-4.5-2.23-6.29-3.98c-1.78-1.75-3.19-3.89-4.23-6.42
				C95.33,473.52,94.77,470.68,94.69,467.53z M102.96,467.31c0.05,1.85,0.36,3.54,0.92,5.07c0.57,1.53,1.36,2.84,2.38,3.94
				c1.02,1.1,2.22,1.95,3.62,2.55c1.39,0.59,2.94,0.87,4.64,0.82c1.7-0.04,3.23-0.4,4.59-1.07c1.36-0.67,2.52-1.58,3.48-2.73
				c0.96-1.16,1.68-2.51,2.17-4.06c0.49-1.55,0.71-3.25,0.66-5.11c-0.05-1.81-0.36-3.49-0.92-5.04c-0.57-1.54-1.36-2.87-2.38-3.97
				c-1.02-1.1-2.22-1.95-3.62-2.55c-1.39-0.59-2.94-0.87-4.64-0.82c-1.7,0.05-3.23,0.4-4.59,1.07c-1.36,0.67-2.52,1.58-3.48,2.73
				c-0.96,1.16-1.68,2.52-2.17,4.09C103.13,463.8,102.91,465.5,102.96,467.31z"/>
		</g>
		<g>
			<path class="st3" d="M89.38,463.97c-0.08-3.15,0.33-6.02,1.23-8.6c0.9-2.58,2.2-4.79,3.89-6.64c1.69-1.84,3.71-3.28,6.07-4.3
				c2.36-1.03,4.95-1.57,7.77-1.65c2.82-0.07,5.44,0.34,7.85,1.24c2.41,0.9,4.5,2.23,6.28,3.98c1.78,1.75,3.19,3.89,4.23,6.43
				c1.04,2.53,1.6,5.37,1.68,8.52c0.08,3.15-0.33,6.02-1.23,8.6c-0.9,2.58-2.2,4.79-3.89,6.64c-1.69,1.84-3.71,3.28-6.07,4.3
				c-2.36,1.03-4.95,1.58-7.77,1.65c-2.83,0.07-5.44-0.34-7.85-1.24c-2.41-0.9-4.5-2.23-6.29-3.98c-1.78-1.75-3.19-3.89-4.23-6.42
				C90.02,469.96,89.46,467.12,89.38,463.97z M97.65,463.75c0.05,1.85,0.36,3.54,0.92,5.07c0.57,1.53,1.36,2.84,2.38,3.94
				c1.02,1.1,2.22,1.95,3.62,2.55c1.39,0.59,2.94,0.87,4.64,0.82c1.7-0.04,3.23-0.4,4.59-1.07c1.36-0.67,2.52-1.58,3.48-2.73
				c0.96-1.16,1.68-2.51,2.17-4.06c0.49-1.55,0.71-3.25,0.66-5.11c-0.05-1.81-0.36-3.49-0.92-5.04c-0.57-1.54-1.36-2.87-2.38-3.97
				c-1.02-1.1-2.22-1.95-3.62-2.55c-1.39-0.59-2.94-0.87-4.64-0.82c-1.7,0.05-3.23,0.4-4.59,1.07c-1.36,0.67-2.52,1.58-3.48,2.73
				c-0.96,1.16-1.68,2.52-2.17,4.09C97.82,460.24,97.6,461.94,97.65,463.75z"/>
			<path class="st4" d="M108.78,484.81c-2.65,0-5.15-0.43-7.45-1.29c-2.48-0.93-4.68-2.32-6.52-4.13c-1.84-1.81-3.31-4.04-4.38-6.65
				c-1.06-2.6-1.64-5.54-1.73-8.76l0,0c-0.08-3.22,0.34-6.19,1.27-8.84c0.93-2.66,2.28-4.97,4.02-6.87c1.74-1.9,3.86-3.41,6.29-4.46
				c2.42-1.05,5.12-1.63,8.02-1.71c2.9-0.07,5.63,0.36,8.1,1.28c2.49,0.93,4.68,2.32,6.52,4.13c1.84,1.81,3.31,4.05,4.38,6.65
				c1.06,2.6,1.65,5.54,1.73,8.76c0.08,3.21-0.34,6.19-1.27,8.84c-0.93,2.66-2.28,4.97-4.03,6.87c-1.74,1.9-3.86,3.4-6.29,4.46
				c-2.43,1.06-5.13,1.63-8.02,1.71C109.22,484.81,109,484.81,108.78,484.81z M108.96,443.44c-0.2,0-0.41,0-0.61,0.01
				c-2.73,0.07-5.26,0.61-7.52,1.59c-2.26,0.98-4.23,2.38-5.84,4.14c-1.62,1.77-2.88,3.92-3.75,6.41c-0.87,2.49-1.27,5.3-1.19,8.36
				l0,0c0.08,3.05,0.63,5.84,1.63,8.29c1,2.44,2.37,4.52,4.08,6.2c1.71,1.68,3.74,2.97,6.05,3.83c2.32,0.87,4.88,1.28,7.6,1.2
				c2.72-0.07,5.25-0.61,7.52-1.59c2.26-0.99,4.23-2.38,5.84-4.14c1.62-1.77,2.88-3.92,3.75-6.41c0.87-2.49,1.27-5.31,1.19-8.36
				c-0.08-3.05-0.63-5.84-1.63-8.29c-1-2.43-2.37-4.52-4.08-6.2c-1.7-1.68-3.74-2.96-6.05-3.83
				C113.81,443.84,111.46,443.44,108.96,443.44z M108.85,476.8c-1.65,0-3.18-0.3-4.55-0.88c-1.48-0.63-2.77-1.54-3.85-2.71
				c-1.07-1.16-1.92-2.56-2.51-4.16c-0.59-1.58-0.92-3.36-0.97-5.28l0,0c-0.05-1.88,0.18-3.66,0.69-5.29
				c0.51-1.65,1.28-3.1,2.29-4.32c1.01-1.22,2.26-2.2,3.7-2.91c1.44-0.71,3.08-1.09,4.87-1.13c1.8-0.03,3.45,0.25,4.92,0.88
				c1.48,0.63,2.77,1.54,3.85,2.71c1.07,1.16,1.92,2.57,2.51,4.19c0.59,1.6,0.92,3.37,0.97,5.25c0.05,1.92-0.18,3.71-0.69,5.32
				c-0.51,1.63-1.28,3.07-2.29,4.29c-1.02,1.23-2.26,2.2-3.7,2.91c-1.44,0.71-3.08,1.09-4.87,1.13
				C109.1,476.8,108.98,476.8,108.85,476.8z M108.89,451.45c-0.11,0-0.22,0-0.33,0c-1.6,0.04-3.05,0.38-4.32,1
				c-1.27,0.62-2.37,1.48-3.26,2.56c-0.9,1.08-1.58,2.38-2.04,3.86c-0.46,1.49-0.67,3.13-0.63,4.86l0,0
				c0.05,1.77,0.34,3.4,0.88,4.85c0.54,1.43,1.29,2.69,2.24,3.72c0.95,1.03,2.09,1.83,3.39,2.38c1.3,0.55,2.77,0.82,4.36,0.77
				c1.6-0.04,3.05-0.38,4.32-1c1.27-0.62,2.36-1.48,3.26-2.56c0.9-1.09,1.59-2.38,2.04-3.84c0.46-1.47,0.67-3.12,0.63-4.89
				c-0.05-1.73-0.34-3.36-0.88-4.82c-0.54-1.45-1.29-2.71-2.24-3.75c-0.95-1.03-2.09-1.83-3.39-2.39
				C111.72,451.71,110.36,451.45,108.89,451.45z"/>
		</g>
	</g>
	<g>
		<g>
			<circle class="st5" cx="108.47" cy="101.86" r="39.28"/>
			<path class="st3" d="M108.47,142.03c-22.15,0-40.17-18.02-40.17-40.17s18.02-40.17,40.17-40.17s40.17,18.02,40.17,40.17
				S130.62,142.03,108.47,142.03z M108.47,63.47c-21.17,0-38.39,17.22-38.39,38.39s17.22,38.39,38.39,38.39s38.39-17.22,38.39-38.39
				S129.63,63.47,108.47,63.47z"/>
		</g>
		<g>
			<g>
				<path class="st6" d="M95.78,120.71c-0.5,0.36-1.25,0.74-2.26,1.12c-0.83,0.32-1.66,0.48-2.51,0.49
					c-0.85,0.01-1.65-0.13-2.4-0.41c-0.73-0.28-1.39-0.72-1.98-1.31c-0.6-0.59-1.05-1.29-1.35-2.08c-0.47-1.23-0.58-2.39-0.33-3.48
					c0.25-1.09,0.92-2.13,1.99-3.13c0.95-0.89,2.15-1.71,3.62-2.47c1.46-0.76,3.06-1.52,4.8-2.29l-0.22-0.57
					c-0.27-0.7-0.61-1.22-1.01-1.56c-0.4-0.34-0.87-0.54-1.39-0.61c-0.52-0.08-1.11-0.04-1.76,0.12c-0.65,0.16-1.31,0.36-1.96,0.62
					c-0.78,0.3-1.65,0.75-2.63,1.36c-0.97,0.61-1.91,1.31-2.81,2.11l-0.2,0.08l-1.17-3.04c0.56-0.4,1.38-0.91,2.47-1.55
					c1.09-0.64,2.2-1.17,3.33-1.61c1.38-0.53,2.57-0.88,3.59-1.05c1.02-0.17,2-0.15,2.94,0.06c0.92,0.21,1.7,0.63,2.36,1.27
					c0.66,0.64,1.2,1.51,1.62,2.63l4.3,11.22c0.2,0.52-0.11,1.13-0.7,1.36l-2.29,0.88C99.84,118.84,96.27,120.35,95.78,120.71z
					 M98.29,115.56c0.03-1.71-2.28-5.9-2.02-6.03c-0.78,0.37-1.76,0.85-2.94,1.43c-1.18,0.58-2.11,1.12-2.79,1.61
					c-0.8,0.59-1.4,1.25-1.79,1.97c-0.86,1.59,0.1,3.89,1.85,4.37c0.92,0.25,1.95,0.13,2.91-0.14c1.73-0.47,3.34-1.4,4.59-2.63
					C98.23,116.01,98.28,115.81,98.29,115.56z"/>
			</g>
			<g>
				<path class="st6" d="M124,109.4l-3.37,1.29l-3.88-10.13c-0.31-0.82-0.65-1.56-1.01-2.23c-0.36-0.67-0.75-1.17-1.16-1.5
					c-0.45-0.34-0.96-0.53-1.53-0.56c-0.57-0.03-1.28,0.12-2.13,0.44c-1.59,0.61-3.62,2.18-4.06,3.76
					c-0.44,1.56,0.87,3.48,1.41,4.89c1.12,2.92,2.24,5.85,3.36,8.77l-3.37,1.29c-1.1-2.87-2.19-5.74-3.29-8.61
					c-0.69-1.8-3.14-6.62-1.74-8.4c1.45-1.84,5.28-4.05,7.48-4.9c1.97-0.76,3.74-0.77,5.29-0.05c1.55,0.73,2.75,2.18,3.59,4.37
					L124,109.4z"/>
			</g>
			<g>
				<path class="st6" d="M143.14,101.5l-2.61,1c0,0-3.6,1.63-4.07,1.94c-0.47,0.31-1.05,0.59-1.73,0.85
					c-1.09,0.42-2.17,0.6-3.25,0.55c-1.08-0.05-2.09-0.34-3.04-0.86c-0.96-0.53-1.84-1.31-2.64-2.32c-0.8-1.01-1.49-2.27-2.06-3.77
					c-0.6-1.56-0.89-3-0.87-4.31c0.02-1.32,0.26-2.55,0.74-3.71c0.43-1.05,1.08-2,1.95-2.84c0.87-0.84,1.87-1.47,3-1.91
					c1-0.39,1.91-0.62,2.73-0.71c0.82-0.09,1.72-0.08,2.7,0.01l-7.12-18.53l4.71,2.15l12.07,31.48
					C143.79,100.91,143.56,101.34,143.14,101.5z M139.15,99.08c0.01-0.12-0.03-0.23-0.08-0.35c-0.64-1.75-1.32-3.48-1.98-5.22
					c-0.66-1.71-1.14-3.49-1.81-5.2c-0.05-0.13-0.11-0.26-0.22-0.34c-0.15-0.1-0.35-0.09-0.54-0.08c-1.66,0.09-3.23,0.19-4.79,0.93
					c-5.23,2.52-3.25,8.87-0.64,11.99c0.62,0.73,1.37,1.42,2.37,1.66c1.25,0.3,2.63-0.17,3.84-0.75c1.23-0.59,2.31-1.33,3.42-2.1
					c0.18-0.12,0.36-0.26,0.42-0.45C139.14,99.14,139.15,99.11,139.15,99.08z"/>
			</g>
		</g>
		<g>
			<g>
				<path class="st3" d="M91.32,118.93c-0.5,0.36-1.25,0.74-2.26,1.12c-0.83,0.32-1.66,0.48-2.51,0.49
					c-0.85,0.01-1.65-0.13-2.4-0.41c-0.73-0.28-1.39-0.72-1.98-1.31c-0.6-0.59-1.05-1.29-1.35-2.08c-0.47-1.23-0.58-2.39-0.33-3.48
					c0.25-1.09,0.92-2.13,1.99-3.13c0.95-0.89,2.15-1.71,3.62-2.47c1.46-0.76,3.06-1.52,4.8-2.29l-0.22-0.57
					c-0.27-0.7-0.61-1.22-1.01-1.56c-0.4-0.34-0.87-0.54-1.39-0.61c-0.52-0.08-1.11-0.04-1.76,0.12c-0.65,0.16-1.31,0.36-1.96,0.62
					c-0.78,0.3-1.65,0.75-2.63,1.36c-0.97,0.61-1.91,1.31-2.81,2.11l-0.2,0.08l-1.17-3.04c0.56-0.4,1.38-0.91,2.47-1.55
					c1.09-0.64,2.2-1.17,3.33-1.61c1.38-0.53,2.57-0.88,3.59-1.05c1.02-0.17,2-0.15,2.94,0.06c0.92,0.21,1.7,0.63,2.36,1.27
					c0.66,0.64,1.2,1.51,1.62,2.63l4.3,11.22c0.2,0.52-0.11,1.13-0.7,1.36l-2.29,0.88C95.39,117.06,91.82,118.57,91.32,118.93z
					 M93.83,113.77c0.03-1.71-2.28-5.9-2.02-6.03c-0.78,0.37-1.76,0.85-2.94,1.43c-1.18,0.58-2.11,1.12-2.79,1.61
					c-0.8,0.59-1.4,1.25-1.79,1.97c-0.86,1.59,0.1,3.89,1.85,4.37c0.92,0.25,1.95,0.13,2.91-0.14c1.73-0.47,3.34-1.4,4.59-2.63
					C93.77,114.23,93.83,114.03,93.83,113.77z"/>
			</g>
			<g>
				<path class="st3" d="M119.55,107.61l-3.37,1.29l-3.88-10.13c-0.31-0.82-0.65-1.56-1.01-2.23c-0.36-0.67-0.75-1.17-1.16-1.5
					c-0.45-0.34-0.96-0.53-1.53-0.56c-0.57-0.03-1.28,0.12-2.13,0.44c-1.59,0.61-3.62,2.18-4.06,3.76
					c-0.44,1.56,0.87,3.48,1.41,4.89c1.12,2.92,2.24,5.85,3.36,8.77l-3.37,1.29c-1.1-2.87-2.19-5.74-3.29-8.61
					c-0.69-1.8-3.14-6.62-1.74-8.4c1.45-1.84,5.28-4.05,7.48-4.9c1.97-0.76,3.74-0.77,5.29-0.05c1.55,0.73,2.75,2.18,3.59,4.37
					L119.55,107.61z"/>
			</g>
			<g>
				<path class="st3" d="M138.69,99.72l-2.61,1c0,0-3.6,1.63-4.07,1.94c-0.47,0.31-1.05,0.59-1.73,0.85
					c-1.09,0.42-2.17,0.6-3.25,0.55c-1.08-0.05-2.09-0.34-3.04-0.86c-0.96-0.53-1.84-1.31-2.64-2.32c-0.8-1.01-1.49-2.27-2.06-3.77
					c-0.6-1.56-0.89-3-0.87-4.31c0.02-1.32,0.26-2.55,0.74-3.71c0.43-1.05,1.08-2,1.95-2.84c0.87-0.84,1.87-1.47,3-1.91
					c1-0.39,1.91-0.62,2.73-0.71c0.82-0.09,1.72-0.08,2.7,0.01l-7.12-18.53l4.71,2.15l12.07,31.48
					C139.33,99.13,139.11,99.56,138.69,99.72z M134.7,97.3c0.01-0.12-0.03-0.23-0.08-0.35c-0.64-1.75-1.32-3.48-1.98-5.22
					c-0.66-1.71-1.14-3.49-1.81-5.2c-0.05-0.13-0.11-0.26-0.22-0.34c-0.15-0.1-0.35-0.09-0.54-0.08c-1.66,0.09-3.23,0.19-4.79,0.93
					c-5.23,2.52-3.25,8.87-0.64,11.99c0.62,0.73,1.37,1.42,2.37,1.66c1.25,0.3,2.63-0.17,3.84-0.75c1.23-0.59,2.31-1.33,3.42-2.1
					c0.18-0.12,0.36-0.26,0.42-0.45C134.69,97.36,134.69,97.33,134.7,97.3z"/>
			</g>
		</g>
		<g>
			<path class="st3" d="M108.47,142.03c-22.15,0-40.17-18.02-40.17-40.17s18.02-40.17,40.17-40.17s40.17,18.02,40.17,40.17
				S130.62,142.03,108.47,142.03z M108.47,63.47c-21.17,0-38.39,17.22-38.39,38.39s17.22,38.39,38.39,38.39s38.39-17.22,38.39-38.39
				S129.63,63.47,108.47,63.47z"/>
		</g>
	</g>
</g>
</svg>
